<mxfile host="65bd71144e">
    <diagram id="ww35-J_WLWEUMiR8cN5G" name="Page-1">
        <mxGraphModel dx="-549" dy="323" grid="0" gridSize="10" guides="1" tooltips="1" connect="1" arrows="1" fold="1" page="1" pageScale="1" pageWidth="850" pageHeight="1100" background="#ffffff" math="0" shadow="0">
            <root>
                <mxCell id="0"/>
                <mxCell id="1" parent="0"/>
                <mxCell id="14" style="edgeStyle=orthogonalEdgeStyle;rounded=0;orthogonalLoop=1;jettySize=auto;html=1;entryX=0.5;entryY=1;entryDx=0;entryDy=0;endArrow=block;endFill=0;exitX=0.5;exitY=0;exitDx=0;exitDy=0;" parent="1" edge="1">
                    <mxGeometry relative="1" as="geometry">
                        <mxPoint x="1750" y="290" as="sourcePoint"/>
                    </mxGeometry>
                </mxCell>
                <mxCell id="53" value="&lt;font color=&quot;#000000&quot; style=&quot;font-size: 35px;&quot;&gt;UML Class Diagrams&lt;/font&gt;" style="text;html=1;strokeColor=none;fillColor=none;align=center;verticalAlign=middle;whiteSpace=wrap;rounded=0;" parent="1" vertex="1">
                    <mxGeometry x="1070" y="24.62" width="390" height="30" as="geometry"/>
                </mxCell>
                <mxCell id="120" value="" style="shape=folder;fontStyle=1;spacingTop=10;tabWidth=190;tabHeight=35;tabPosition=left;html=1;fillColor=none;strokeColor=#000000;" parent="1" vertex="1">
                    <mxGeometry x="985" y="120" width="580" height="375" as="geometry"/>
                </mxCell>
                <mxCell id="123" value="&lt;font color=&quot;#030303&quot;&gt;CheepDTO&lt;/font&gt;" style="swimlane;fontStyle=1;align=center;verticalAlign=top;childLayout=stackLayout;horizontal=1;startSize=26;horizontalStack=0;resizeParent=1;resizeParentMax=0;resizeLast=0;collapsible=1;marginBottom=0;whiteSpace=wrap;html=1;strokeColor=#000000;fillColor=none;" parent="1" vertex="1">
                    <mxGeometry x="1042" y="195" width="160" height="108" as="geometry"/>
                </mxCell>
                <mxCell id="124" value="&lt;font color=&quot;#0d0d0d&quot;&gt;+ guid CheepId&lt;br&gt;+ string AuthorName&lt;br&gt;+ int Likes&lt;br&gt;+ string Message&lt;br&gt;+ Datetime Timestamp&lt;/font&gt;" style="text;strokeColor=none;fillColor=none;align=left;verticalAlign=top;spacingLeft=4;spacingRight=4;overflow=hidden;rotatable=0;points=[[0,0.5],[1,0.5]];portConstraint=eastwest;whiteSpace=wrap;html=1;" parent="123" vertex="1">
                    <mxGeometry y="26" width="160" height="82" as="geometry"/>
                </mxCell>
                <mxCell id="125" value="&lt;font color=&quot;#0d0d0d&quot;&gt;AuthorDTO&lt;/font&gt;" style="swimlane;fontStyle=1;align=center;verticalAlign=top;childLayout=stackLayout;horizontal=1;startSize=26;horizontalStack=0;resizeParent=1;resizeParentMax=0;resizeLast=0;collapsible=1;marginBottom=0;whiteSpace=wrap;html=1;fillColor=none;strokeWidth=1;strokeColor=#030303;" parent="1" vertex="1">
                    <mxGeometry x="1325" y="195" width="180" height="121" as="geometry"/>
                </mxCell>
                <mxCell id="126" value="&lt;font color=&quot;#0d0d0d&quot;&gt;+ guid AuthorID&lt;br&gt;+ string Name&lt;br&gt;+ string Email&lt;br&gt;+ List &amp;lt;CheepDTO&amp;gt; Cheeps&lt;br&gt;+ List &amp;lt;AuthorDTO&amp;gt; Followed&lt;br&gt;+ List &amp;lt;AuthorDTO&amp;gt; Followers&lt;br&gt;&lt;/font&gt;" style="text;strokeColor=none;fillColor=none;align=left;verticalAlign=top;spacingLeft=4;spacingRight=4;overflow=hidden;rotatable=0;points=[[0,0.5],[1,0.5]];portConstraint=eastwest;whiteSpace=wrap;html=1;" parent="125" vertex="1">
                    <mxGeometry y="26" width="180" height="95" as="geometry"/>
                </mxCell>
                <mxCell id="128" value="&lt;font color=&quot;#000000&quot;&gt;CheepDTO*&lt;/font&gt;" style="text;html=1;strokeColor=none;fillColor=none;align=center;verticalAlign=middle;whiteSpace=wrap;rounded=0;" parent="1" vertex="1">
                    <mxGeometry x="1208" y="241" width="60" height="30" as="geometry"/>
                </mxCell>
                <mxCell id="129" value="&lt;font color=&quot;#000000&quot;&gt;CheepCreateDTO&lt;/font&gt;" style="swimlane;fontStyle=1;align=center;verticalAlign=top;childLayout=stackLayout;horizontal=1;startSize=26;horizontalStack=0;resizeParent=1;resizeParentMax=0;resizeLast=0;collapsible=1;marginBottom=0;whiteSpace=wrap;html=1;strokeColor=#000000;fillColor=none;" parent="1" vertex="1">
                    <mxGeometry x="1190" y="326" width="160" height="70" as="geometry"/>
                </mxCell>
                <mxCell id="130" value="&lt;font color=&quot;#000000&quot;&gt;+ Author string&lt;br&gt;+ Text string&lt;/font&gt;" style="text;strokeColor=none;fillColor=none;align=left;verticalAlign=top;spacingLeft=4;spacingRight=4;overflow=hidden;rotatable=0;points=[[0,0.5],[1,0.5]];portConstraint=eastwest;whiteSpace=wrap;html=1;" parent="129" vertex="1">
                    <mxGeometry y="26" width="160" height="44" as="geometry"/>
                </mxCell>
                <mxCell id="131" value="&lt;font color=&quot;#0d0d0d&quot; style=&quot;font-size: 19px;&quot;&gt;Chirp.Core&lt;/font&gt;" style="text;html=1;strokeColor=none;fillColor=none;align=center;verticalAlign=middle;whiteSpace=wrap;rounded=0;" parent="1" vertex="1">
                    <mxGeometry x="1045" y="120" width="60" height="30" as="geometry"/>
                </mxCell>
                <mxCell id="163" value="&lt;font color=&quot;#000000&quot;&gt;«interface»&lt;br&gt;&lt;b&gt;ICheepRepository&lt;/b&gt;&lt;/font&gt;" style="html=1;whiteSpace=wrap;strokeColor=#000000;fillColor=none;" parent="1" vertex="1">
                    <mxGeometry x="1042" y="428" width="110" height="50" as="geometry"/>
                </mxCell>
                <mxCell id="164" value="&lt;font color=&quot;#030303&quot;&gt;«interface»&lt;br&gt;&lt;b&gt;IAuthorRepository&lt;/b&gt;&lt;/font&gt;" style="html=1;whiteSpace=wrap;strokeColor=#000000;fillColor=none;" parent="1" vertex="1">
                    <mxGeometry x="1042" y="374" width="110" height="50" as="geometry"/>
                </mxCell>
                <mxCell id="176" value="&lt;font color=&quot;#030303&quot;&gt;«interface»&lt;br&gt;&lt;b&gt;ICheepService&lt;/b&gt;&lt;/font&gt;" style="html=1;whiteSpace=wrap;strokeColor=#000000;fillColor=none;" parent="1" vertex="1">
                    <mxGeometry x="1042" y="318" width="110" height="50" as="geometry"/>
                </mxCell>
                <mxCell id="191" value="" style="shape=folder;fontStyle=1;spacingTop=10;tabWidth=190;tabHeight=35;tabPosition=left;html=1;strokeColor=#000000;fillColor=none;" parent="1" vertex="1">
                    <mxGeometry x="870" y="540" width="810" height="898" as="geometry"/>
                </mxCell>
                <mxCell id="192" value="&lt;font color=&quot;#000000&quot;&gt;Author&lt;/font&gt;" style="swimlane;fontStyle=1;align=center;verticalAlign=top;childLayout=stackLayout;horizontal=1;startSize=26;horizontalStack=0;resizeParent=1;resizeParentMax=0;resizeLast=0;collapsible=1;marginBottom=0;whiteSpace=wrap;html=1;fillColor=none;strokeColor=#000000;" parent="1" vertex="1">
                    <mxGeometry x="1443" y="851" width="190" height="123" as="geometry"/>
                </mxCell>
                <mxCell id="193" value="&lt;font color=&quot;#000000&quot;&gt;+ guid AuthorID&lt;br style=&quot;border-color: var(--border-color);&quot;&gt;+ string Name&lt;br style=&quot;border-color: var(--border-color);&quot;&gt;+ string Email&lt;br style=&quot;border-color: var(--border-color);&quot;&gt;+ List &amp;lt;CheepDTO&amp;gt; Cheeps&lt;br&gt;+ List &amp;lt;AuthorDTO&amp;gt; Followed&lt;br&gt;+ List &amp;lt;AuthorDTO&amp;gt; Followers&lt;br&gt;&lt;/font&gt;" style="text;strokeColor=none;fillColor=none;align=left;verticalAlign=top;spacingLeft=4;spacingRight=4;overflow=hidden;rotatable=0;points=[[0,0.5],[1,0.5]];portConstraint=eastwest;whiteSpace=wrap;html=1;" parent="192" vertex="1">
                    <mxGeometry y="26" width="190" height="97" as="geometry"/>
                </mxCell>
                <mxCell id="194" value="&lt;font color=&quot;#000000&quot;&gt;Cheep&lt;/font&gt;" style="swimlane;fontStyle=1;align=center;verticalAlign=top;childLayout=stackLayout;horizontal=1;startSize=26;horizontalStack=0;resizeParent=1;resizeParentMax=0;resizeLast=0;collapsible=1;marginBottom=0;whiteSpace=wrap;html=1;fillColor=none;strokeColor=#000000;" parent="1" vertex="1">
                    <mxGeometry x="1050" y="868" width="190" height="108" as="geometry"/>
                </mxCell>
                <mxCell id="195" value="&lt;font color=&quot;#000000&quot;&gt;+ guid CheepID&lt;br&gt;+ author Author&lt;br&gt;+ string Text&lt;br&gt;+ int Likes&lt;br&gt;+ datetime Timestamp&lt;/font&gt;" style="text;strokeColor=none;fillColor=none;align=left;verticalAlign=top;spacingLeft=4;spacingRight=4;overflow=hidden;rotatable=0;points=[[0,0.5],[1,0.5]];portConstraint=eastwest;whiteSpace=wrap;html=1;" parent="194" vertex="1">
                    <mxGeometry y="26" width="190" height="82" as="geometry"/>
                </mxCell>
                <mxCell id="196" style="edgeStyle=orthogonalEdgeStyle;rounded=0;orthogonalLoop=1;jettySize=auto;html=1;entryX=0.552;entryY=1.056;entryDx=0;entryDy=0;entryPerimeter=0;strokeColor=#000000;" parent="1" source="197" target="208" edge="1">
                    <mxGeometry relative="1" as="geometry">
                        <Array as="points">
                            <mxPoint x="1190" y="1208"/>
                            <mxPoint x="1208" y="1208"/>
                        </Array>
                    </mxGeometry>
                </mxCell>
                <mxCell id="197" value="&lt;font color=&quot;#000000&quot;&gt;AuthorRepository&lt;/font&gt;" style="swimlane;fontStyle=1;align=center;verticalAlign=top;childLayout=stackLayout;horizontal=1;startSize=26;horizontalStack=0;resizeParent=1;resizeParentMax=0;resizeLast=0;collapsible=1;marginBottom=0;whiteSpace=wrap;html=1;strokeColor=#000000;fillColor=none;" parent="1" vertex="1">
                    <mxGeometry x="1013" y="1180" width="380" height="241" as="geometry"/>
                </mxCell>
                <mxCell id="198" value="&lt;font color=&quot;#000000&quot;&gt;- db&amp;nbsp;ChirpDBContext&lt;/font&gt;" style="text;strokeColor=none;fillColor=none;align=left;verticalAlign=top;spacingLeft=4;spacingRight=4;overflow=hidden;rotatable=0;points=[[0,0.5],[1,0.5]];portConstraint=eastwest;whiteSpace=wrap;html=1;" parent="197" vertex="1">
                    <mxGeometry y="26" width="380" height="24" as="geometry"/>
                </mxCell>
                <mxCell id="199" value="" style="line;strokeWidth=1;fillColor=none;align=left;verticalAlign=middle;spacingTop=-1;spacingLeft=3;spacingRight=3;rotatable=0;labelPosition=right;points=[];portConstraint=eastwest;strokeColor=inherit;" parent="197" vertex="1">
                    <mxGeometry y="50" width="380" height="8" as="geometry"/>
                </mxCell>
                <mxCell id="200" value="&lt;font color=&quot;#000000&quot;&gt;+ AuthorRepository (ChirpDBContext db)&lt;br&gt;+ AddAuthor(string name, string email)&lt;br&gt;&lt;/font&gt;&lt;span style=&quot;color: rgb(0, 0, 0);&quot;&gt;+ DeleteAuthor(guid AuthorId)&lt;/span&gt;&lt;font color=&quot;#000000&quot;&gt;&lt;br&gt;+ GetAuthorByID(guid ID)&lt;br&gt;+ GetAuthorByName(string name)&lt;br&gt;+ GetAuthorByEmail(string email)&lt;br&gt;+ RemoveFollowee(string _AuthorName, string _FolloweeName)&lt;br&gt;+ DoesAuthorExist(string email)&lt;br&gt;+ AddFollowee(string _AuthorName, string _FolloweeName)&lt;br&gt;- GetAllCheepsFromAuthor(string author, ChirpDBContext context)&lt;br&gt;- GetAllFollowedAuthor(guid AuthorId, ChirpDBContext DBcontext)&lt;br&gt;- GetAllFollowers(guid AuthorId, ChirpDBContext _dbcontext)&lt;br&gt;&lt;/font&gt;" style="text;strokeColor=none;fillColor=none;align=left;verticalAlign=top;spacingLeft=4;spacingRight=4;overflow=hidden;rotatable=0;points=[[0,0.5],[1,0.5]];portConstraint=eastwest;whiteSpace=wrap;html=1;" parent="197" vertex="1">
                    <mxGeometry y="58" width="380" height="183" as="geometry"/>
                </mxCell>
                <mxCell id="201" value="&lt;font color=&quot;#000000&quot;&gt;CheepRepository&lt;/font&gt;" style="swimlane;fontStyle=1;align=center;verticalAlign=top;childLayout=stackLayout;horizontal=1;startSize=26;horizontalStack=0;resizeParent=1;resizeParentMax=0;resizeLast=0;collapsible=1;marginBottom=0;whiteSpace=wrap;html=1;strokeColor=#000000;fillColor=none;" parent="1" vertex="1">
                    <mxGeometry x="885" y="583" width="490" height="276" as="geometry"/>
                </mxCell>
                <mxCell id="202" value="&lt;font color=&quot;#000000&quot;&gt;- db ChirpDBContext&lt;br&gt;- _validator CheepCreateValidator&amp;lt;&lt;font style=&quot;font-size: 12px;&quot;&gt;CheepCreateDTO&lt;/font&gt;&lt;span style=&quot;font-family: Consolas, &amp;quot;Courier New&amp;quot;, monospace; font-size: 14px;&quot;&gt;&amp;gt;&lt;/span&gt;&lt;/font&gt;" style="text;strokeColor=none;fillColor=none;align=left;verticalAlign=top;spacingLeft=4;spacingRight=4;overflow=hidden;rotatable=0;points=[[0,0.5],[1,0.5]];portConstraint=eastwest;whiteSpace=wrap;html=1;" parent="201" vertex="1">
                    <mxGeometry y="26" width="490" height="44" as="geometry"/>
                </mxCell>
                <mxCell id="203" value="" style="line;strokeWidth=1;fillColor=none;align=left;verticalAlign=middle;spacingTop=-1;spacingLeft=3;spacingRight=3;rotatable=0;labelPosition=right;points=[];portConstraint=eastwest;strokeColor=inherit;" parent="201" vertex="1">
                    <mxGeometry y="70" width="490" height="8" as="geometry"/>
                </mxCell>
                <mxCell id="204" value="&lt;font color=&quot;#000000&quot;&gt;&lt;font style=&quot;font-size: 12px;&quot;&gt;+&amp;nbsp;CheepRepository(ChirpDBContext db)&lt;/font&gt;&lt;br&gt;+ AddCheep(guid authorId, string text)&lt;br&gt;+ DeleteCheepsFromAuthor(guid authorid)&lt;br&gt;+ GetCheeps(int pageNum)&lt;br&gt;+ GetCheepsFromAuthor(string authorName, int pageNum)&lt;br&gt;+ GetCountOfAllCheeps()&lt;br&gt;+ GetCountOfAllCheepFromAuthor(string authorName)&lt;br&gt;-&amp;nbsp; GetAuthorById(guid id)&lt;br&gt;+ Create(CheepCreateDTO cheep)&lt;br&gt;+ IncreaseLikeAttributeInCheep(guid cheepId)&lt;br&gt;- GetCheepsFromFollowed(string AuthorName)&lt;br&gt;- GetAllCheepsFromAuthor(string AuthorName)&lt;br&gt;+ CombineCheepsAndFollowerCheeps(string AuthorName, int pageNum)&lt;br&gt;&lt;/font&gt;" style="text;strokeColor=none;fillColor=none;align=left;verticalAlign=top;spacingLeft=4;spacingRight=4;overflow=hidden;rotatable=0;points=[[0,0.5],[1,0.5]];portConstraint=eastwest;whiteSpace=wrap;html=1;" parent="201" vertex="1">
                    <mxGeometry y="78" width="490" height="198" as="geometry"/>
                </mxCell>
                <mxCell id="205" value="&lt;font color=&quot;#000000&quot;&gt;ChirpDBContext&lt;/font&gt;" style="swimlane;fontStyle=1;align=center;verticalAlign=top;childLayout=stackLayout;horizontal=1;startSize=26;horizontalStack=0;resizeParent=1;resizeParentMax=0;resizeLast=0;collapsible=1;marginBottom=0;whiteSpace=wrap;html=1;strokeColor=#000000;fillColor=none;" parent="1" vertex="1">
                    <mxGeometry x="960" y="1016" width="450" height="120" as="geometry"/>
                </mxCell>
                <mxCell id="206" value="&lt;font color=&quot;#000000&quot;&gt;+&amp;nbsp;&lt;/font&gt;&lt;span style=&quot;color: rgb(0, 0, 0);&quot;&gt;DbSet&amp;lt;Cheep&amp;gt;&amp;nbsp;&amp;nbsp;&lt;/span&gt;&lt;font color=&quot;#000000&quot;&gt;Cheeps&lt;br&gt;+&amp;nbsp;&lt;/font&gt;&lt;span style=&quot;color: rgb(0, 0, 0);&quot;&gt;DbSet&amp;lt;Author&amp;gt;&amp;nbsp;&amp;nbsp;&lt;/span&gt;&lt;font color=&quot;#000000&quot;&gt;Authors&lt;/font&gt;" style="text;strokeColor=none;fillColor=none;align=left;verticalAlign=top;spacingLeft=4;spacingRight=4;overflow=hidden;rotatable=0;points=[[0,0.5],[1,0.5]];portConstraint=eastwest;whiteSpace=wrap;html=1;" parent="205" vertex="1">
                    <mxGeometry y="26" width="450" height="44" as="geometry"/>
                </mxCell>
                <mxCell id="207" value="" style="line;strokeWidth=1;fillColor=none;align=left;verticalAlign=middle;spacingTop=-1;spacingLeft=3;spacingRight=3;rotatable=0;labelPosition=right;points=[];portConstraint=eastwest;strokeColor=inherit;" parent="205" vertex="1">
                    <mxGeometry y="70" width="450" height="8" as="geometry"/>
                </mxCell>
                <mxCell id="208" value="&lt;font color=&quot;#000000&quot;&gt;+ ChirpDBContext(DbContextOptions&amp;lt;ChirpDBContext&amp;gt; options) : base(options)&lt;br&gt;# OnModelCreating(ModelBuilder modelBuilder)&lt;/font&gt;" style="text;strokeColor=none;fillColor=none;align=left;verticalAlign=top;spacingLeft=4;spacingRight=4;overflow=hidden;rotatable=0;points=[[0,0.5],[1,0.5]];portConstraint=eastwest;whiteSpace=wrap;html=1;" parent="205" vertex="1">
                    <mxGeometry y="78" width="450" height="42" as="geometry"/>
                </mxCell>
                <mxCell id="209" style="edgeStyle=orthogonalEdgeStyle;rounded=0;orthogonalLoop=1;jettySize=auto;html=1;entryX=0.133;entryY=-0.011;entryDx=0;entryDy=0;entryPerimeter=0;strokeColor=#000000;" parent="1" source="204" target="205" edge="1">
                    <mxGeometry relative="1" as="geometry">
                        <Array as="points">
                            <mxPoint x="920" y="925"/>
                            <mxPoint x="1020" y="925"/>
                        </Array>
                    </mxGeometry>
                </mxCell>
                <mxCell id="210" style="edgeStyle=orthogonalEdgeStyle;rounded=0;orthogonalLoop=1;jettySize=auto;html=1;entryX=0.505;entryY=1.01;entryDx=0;entryDy=0;entryPerimeter=0;strokeColor=#000000;" parent="1" source="205" target="195" edge="1">
                    <mxGeometry relative="1" as="geometry">
                        <Array as="points">
                            <mxPoint x="1185" y="1001"/>
                            <mxPoint x="1146" y="1001"/>
                        </Array>
                    </mxGeometry>
                </mxCell>
                <mxCell id="211" style="edgeStyle=orthogonalEdgeStyle;rounded=0;orthogonalLoop=1;jettySize=auto;html=1;entryX=0.53;entryY=0.998;entryDx=0;entryDy=0;entryPerimeter=0;exitX=1.003;exitY=0.826;exitDx=0;exitDy=0;exitPerimeter=0;strokeColor=#000000;" parent="1" source="206" target="193" edge="1">
                    <mxGeometry relative="1" as="geometry">
                        <Array as="points">
                            <mxPoint x="1544" y="1078"/>
                        </Array>
                    </mxGeometry>
                </mxCell>
                <mxCell id="212" style="edgeStyle=orthogonalEdgeStyle;rounded=0;orthogonalLoop=1;jettySize=auto;html=1;strokeColor=#000000;entryX=0.003;entryY=0.403;entryDx=0;entryDy=0;entryPerimeter=0;" parent="1" source="195" target="193" edge="1">
                    <mxGeometry relative="1" as="geometry">
                        <Array as="points">
                            <mxPoint x="1320" y="917"/>
                            <mxPoint x="1430" y="916"/>
                        </Array>
                        <mxPoint x="1430" y="874" as="targetPoint"/>
                    </mxGeometry>
                </mxCell>
                <mxCell id="213" value="&lt;font color=&quot;#000000&quot; style=&quot;font-size: 20px;&quot;&gt;Chirp.Infrastructure&lt;/font&gt;" style="text;html=1;strokeColor=none;fillColor=none;align=center;verticalAlign=middle;whiteSpace=wrap;rounded=0;" parent="1" vertex="1">
                    <mxGeometry x="940" y="540" width="60" height="30" as="geometry"/>
                </mxCell>
                <mxCell id="214" value="&lt;font color=&quot;#000000&quot;&gt;ChirpDBContext*&lt;/font&gt;" style="text;html=1;strokeColor=none;fillColor=none;align=center;verticalAlign=middle;whiteSpace=wrap;rounded=0;" parent="1" vertex="1">
                    <mxGeometry x="930" y="984" width="60" height="30" as="geometry"/>
                </mxCell>
                <mxCell id="215" value="&lt;font color=&quot;#000000&quot;&gt;Cheep*&lt;/font&gt;" style="text;html=1;strokeColor=none;fillColor=none;align=center;verticalAlign=middle;whiteSpace=wrap;rounded=0;" parent="1" vertex="1">
                    <mxGeometry x="1086" y="970" width="60" height="30" as="geometry"/>
                </mxCell>
                <mxCell id="216" value="&lt;font color=&quot;#000000&quot;&gt;Author*&lt;/font&gt;" style="text;html=1;strokeColor=none;fillColor=none;align=center;verticalAlign=middle;whiteSpace=wrap;rounded=0;" parent="1" vertex="1">
                    <mxGeometry x="1483" y="976" width="60" height="30" as="geometry"/>
                </mxCell>
                <mxCell id="218" value="&lt;font color=&quot;#000000&quot;&gt;ChirpDBContext*&lt;/font&gt;" style="text;html=1;strokeColor=none;fillColor=none;align=center;verticalAlign=middle;whiteSpace=wrap;rounded=0;" parent="1" vertex="1">
                    <mxGeometry x="1240" y="1139.5" width="60" height="30" as="geometry"/>
                </mxCell>
                <mxCell id="227" value="&lt;font color=&quot;#000000&quot;&gt;Author*&lt;/font&gt;" style="text;html=1;strokeColor=none;fillColor=none;align=center;verticalAlign=middle;whiteSpace=wrap;rounded=0;" parent="1" vertex="1">
                    <mxGeometry x="1383" y="887" width="60" height="30" as="geometry"/>
                </mxCell>
                <mxCell id="231" value="" style="shape=folder;fontStyle=1;spacingTop=10;tabWidth=190;tabHeight=35;tabPosition=left;html=1;strokeColor=#000000;fillColor=none;" parent="1" vertex="1">
                    <mxGeometry x="881" y="1510" width="789" height="589" as="geometry"/>
                </mxCell>
                <mxCell id="232" value="" style="shape=folder;fontStyle=1;spacingTop=10;tabWidth=190;tabHeight=35;tabPosition=left;html=1;strokeColor=#000000;fillColor=none;" parent="1" vertex="1">
                    <mxGeometry x="926" y="1941.37" width="714" height="133.5" as="geometry"/>
                </mxCell>
                <mxCell id="233" value="&lt;font color=&quot;#000000&quot; style=&quot;font-size: 20px;&quot;&gt;Chirp.Razor&lt;/font&gt;" style="text;html=1;strokeColor=none;fillColor=none;align=center;verticalAlign=middle;whiteSpace=wrap;rounded=0;" parent="1" vertex="1">
                    <mxGeometry x="941" y="1510" width="60" height="30" as="geometry"/>
                </mxCell>
                <mxCell id="234" value="&lt;font color=&quot;#000000&quot;&gt;DbInitializer&lt;/font&gt;" style="swimlane;fontStyle=1;align=center;verticalAlign=top;childLayout=stackLayout;horizontal=1;startSize=26;horizontalStack=0;resizeParent=1;resizeParentMax=0;resizeLast=0;collapsible=1;marginBottom=0;whiteSpace=wrap;html=1;strokeColor=#000000;fillColor=none;" parent="1" vertex="1">
                    <mxGeometry x="1350" y="1916" width="290" height="52" as="geometry"/>
                </mxCell>
                <mxCell id="235" value="&lt;font color=&quot;#000000&quot;&gt;+ SeedDatabase(ChirpDBContext chirpContext)&lt;/font&gt;" style="text;strokeColor=none;fillColor=none;align=left;verticalAlign=top;spacingLeft=4;spacingRight=4;overflow=hidden;rotatable=0;points=[[0,0.5],[1,0.5]];portConstraint=eastwest;whiteSpace=wrap;html=1;" parent="234" vertex="1">
                    <mxGeometry y="26" width="290" height="26" as="geometry"/>
                </mxCell>
                <mxCell id="236" value="&lt;font color=&quot;#000000&quot; style=&quot;font-size: 20px;&quot;&gt;Pages&lt;/font&gt;" style="text;html=1;strokeColor=none;fillColor=none;align=center;verticalAlign=middle;whiteSpace=wrap;rounded=0;" parent="1" vertex="1">
                    <mxGeometry x="980" y="1941" width="60" height="30" as="geometry"/>
                </mxCell>
                <mxCell id="237" value="&lt;font color=&quot;#000000&quot;&gt;CheepService&lt;/font&gt;" style="swimlane;fontStyle=1;align=center;verticalAlign=top;childLayout=stackLayout;horizontal=1;startSize=26;horizontalStack=0;resizeParent=1;resizeParentMax=0;resizeLast=0;collapsible=1;marginBottom=0;whiteSpace=wrap;html=1;strokeColor=#000000;fillColor=none;" parent="1" vertex="1">
                    <mxGeometry x="913" y="1562" width="520" height="332" as="geometry"/>
                </mxCell>
                <mxCell id="238" value="&lt;font color=&quot;#000000&quot;&gt;+ _cheepRepository ICheepRepository&lt;br&gt;+ _authorRepository IAuthorRepository&lt;/font&gt;" style="text;strokeColor=none;fillColor=none;align=left;verticalAlign=top;spacingLeft=4;spacingRight=4;overflow=hidden;rotatable=0;points=[[0,0.5],[1,0.5]];portConstraint=eastwest;whiteSpace=wrap;html=1;" parent="237" vertex="1">
                    <mxGeometry y="26" width="520" height="44" as="geometry"/>
                </mxCell>
                <mxCell id="239" value="" style="line;strokeWidth=1;fillColor=none;align=left;verticalAlign=middle;spacingTop=-1;spacingLeft=3;spacingRight=3;rotatable=0;labelPosition=right;points=[];portConstraint=eastwest;strokeColor=inherit;" parent="237" vertex="1">
                    <mxGeometry y="70" width="520" height="8" as="geometry"/>
                </mxCell>
                <mxCell id="240" value="&lt;font color=&quot;#000000&quot;&gt;+ CheepService(ICheepRepository cheepRepository, IAuthorRepository authorrepository)&lt;br&gt;+ AddCheep(guid authorid, string text)&lt;br&gt;+ GetCheeps(int pageNum)&lt;br&gt;+ CetCheepsFromAuthor(string author, int pageNum)&lt;br&gt;+ GetAuthorByName(string name)&lt;br&gt;+ GetAuthorByEmail(string email)&lt;br&gt;+ GetCountOfAllCheepsFromAuthor(string author)&lt;br&gt;+ GetCountOfAllCheeps()&lt;br&gt;+ Create(CheepCreateDTO)&lt;br&gt;+ IncreaseLikeAttributeInCheep(guid cheepId)&lt;br&gt;+ AddAuthor(string name, string email)&lt;br&gt;+ DeleteCheepsFromAuthor(guid authorid)&lt;br&gt;+ DeleteAuthor(guid authorid)&lt;br&gt;+ AddFollowee(string AuthorName, string FolloweeName)&lt;br&gt;+ RemoveFollowee(string AuthorName, string FolloweeName)&lt;br&gt;+ DoesAuthorExist(string email)&lt;br&gt;+ CombineCheepsAndFollowersCheeps(string AuthorName, int pageNum)&lt;br&gt;&lt;/font&gt;" style="text;strokeColor=none;fillColor=none;align=left;verticalAlign=top;spacingLeft=4;spacingRight=4;overflow=hidden;rotatable=0;points=[[0,0.5],[1,0.5]];portConstraint=eastwest;whiteSpace=wrap;html=1;" parent="237" vertex="1">
                    <mxGeometry y="78" width="520" height="254" as="geometry"/>
                </mxCell>
                <mxCell id="241" value="&lt;font color=&quot;#000000&quot;&gt;Program&lt;/font&gt;" style="swimlane;fontStyle=1;align=center;verticalAlign=top;childLayout=stackLayout;horizontal=1;startSize=26;horizontalStack=0;resizeParent=1;resizeParentMax=0;resizeLast=0;collapsible=1;marginBottom=0;whiteSpace=wrap;html=1;strokeColor=#000000;fillColor=none;" parent="1" vertex="1">
                    <mxGeometry x="1488" y="1610" width="160" height="34" as="geometry"/>
                </mxCell>
                <mxCell id="273" value="" style="shape=folder;fontStyle=1;spacingTop=10;tabWidth=190;tabHeight=35;tabPosition=left;html=1;fillColor=none;strokeColor=#000000;" parent="1" vertex="1">
                    <mxGeometry x="885" y="2252" width="735" height="595" as="geometry"/>
                </mxCell>
                <mxCell id="274" value="&lt;font color=&quot;#000000&quot; style=&quot;font-size: 20px;&quot;&gt;Pages&lt;/font&gt;" style="text;html=1;strokeColor=none;fillColor=none;align=center;verticalAlign=middle;whiteSpace=wrap;rounded=0;" parent="1" vertex="1">
                    <mxGeometry x="960" y="2252" width="60" height="30" as="geometry"/>
                </mxCell>
                <mxCell id="329" style="edgeStyle=none;html=1;exitX=1;exitY=0.5;exitDx=0;exitDy=0;entryX=0;entryY=0.5;entryDx=0;entryDy=0;strokeColor=#000000;" edge="1" parent="1" source="276" target="297">
                    <mxGeometry relative="1" as="geometry"/>
                </mxCell>
                <mxCell id="276" value="&lt;font color=&quot;#000000&quot;&gt;Public.cshtml&lt;/font&gt;" style="html=1;whiteSpace=wrap;strokeColor=#000000;fillColor=none;" parent="1" vertex="1">
                    <mxGeometry x="984" y="2349" width="110" height="50" as="geometry"/>
                </mxCell>
                <mxCell id="330" style="edgeStyle=none;html=1;exitX=0;exitY=0.5;exitDx=0;exitDy=0;entryX=1;entryY=0.5;entryDx=0;entryDy=0;strokeColor=#000000;endArrow=classic;endFill=1;" edge="1" parent="1" source="277" target="287">
                    <mxGeometry relative="1" as="geometry"/>
                </mxCell>
                <mxCell id="277" value="&lt;font color=&quot;#000000&quot;&gt;UserPage.cshtml&lt;/font&gt;" style="html=1;whiteSpace=wrap;fillColor=none;strokeColor=#000000;" parent="1" vertex="1">
                    <mxGeometry x="1207" y="2744" width="110" height="50" as="geometry"/>
                </mxCell>
                <mxCell id="327" style="edgeStyle=none;html=1;exitX=0.25;exitY=1;exitDx=0;exitDy=0;entryX=0.603;entryY=-0.004;entryDx=0;entryDy=0;entryPerimeter=0;strokeColor=#000000;" edge="1" parent="1" source="278" target="289">
                    <mxGeometry relative="1" as="geometry"/>
                </mxCell>
                <mxCell id="278" value="&lt;font color=&quot;#000000&quot;&gt;UserTimeline.cshtml&lt;/font&gt;" style="html=1;whiteSpace=wrap;fillColor=none;strokeColor=#000000;" parent="1" vertex="1">
                    <mxGeometry x="1468" y="2395" width="120" height="50" as="geometry"/>
                </mxCell>
                <mxCell id="279" value="&lt;font color=&quot;#000000&quot;&gt;CheepModel&lt;/font&gt;" style="swimlane;fontStyle=1;align=center;verticalAlign=top;childLayout=stackLayout;horizontal=1;startSize=26;horizontalStack=0;resizeParent=1;resizeParentMax=0;resizeLast=0;collapsible=1;marginBottom=0;whiteSpace=wrap;html=1;strokeColor=#000000;fillColor=none;" parent="1" vertex="1">
                    <mxGeometry x="910" y="2456" width="240" height="130" as="geometry"/>
                </mxCell>
                <mxCell id="280" value="&lt;font color=&quot;#000000&quot;&gt;+ _service ICheepService&lt;br&gt;+ Author string&lt;br&gt;+ CheepMessage string&lt;/font&gt;" style="text;strokeColor=none;fillColor=none;align=left;verticalAlign=top;spacingLeft=4;spacingRight=4;overflow=hidden;rotatable=0;points=[[0,0.5],[1,0.5]];portConstraint=eastwest;whiteSpace=wrap;html=1;" parent="279" vertex="1">
                    <mxGeometry y="26" width="240" height="54" as="geometry"/>
                </mxCell>
                <mxCell id="281" value="" style="line;strokeWidth=1;fillColor=none;align=left;verticalAlign=middle;spacingTop=-1;spacingLeft=3;spacingRight=3;rotatable=0;labelPosition=right;points=[];portConstraint=eastwest;strokeColor=inherit;" parent="279" vertex="1">
                    <mxGeometry y="80" width="240" height="8" as="geometry"/>
                </mxCell>
                <mxCell id="282" value="&lt;font color=&quot;#000000&quot;&gt;+ CheepModel(ICheepService service)&lt;br&gt;+ OnPost()&lt;/font&gt;" style="text;strokeColor=none;fillColor=none;align=left;verticalAlign=top;spacingLeft=4;spacingRight=4;overflow=hidden;rotatable=0;points=[[0,0.5],[1,0.5]];portConstraint=eastwest;whiteSpace=wrap;html=1;" parent="279" vertex="1">
                    <mxGeometry y="88" width="240" height="42" as="geometry"/>
                </mxCell>
                <mxCell id="321" style="edgeStyle=none;html=1;exitX=1;exitY=0.25;exitDx=0;exitDy=0;entryX=0.25;entryY=1;entryDx=0;entryDy=0;strokeColor=#000000;endArrow=block;endFill=0;" parent="1" source="284" target="293" edge="1">
                    <mxGeometry relative="1" as="geometry">
                        <Array as="points">
                            <mxPoint x="1199" y="2683"/>
                        </Array>
                    </mxGeometry>
                </mxCell>
                <mxCell id="284" value="&lt;font color=&quot;#000000&quot;&gt;UserPage&lt;/font&gt;" style="swimlane;fontStyle=1;align=center;verticalAlign=top;childLayout=stackLayout;horizontal=1;startSize=26;horizontalStack=0;resizeParent=1;resizeParentMax=0;resizeLast=0;collapsible=1;marginBottom=0;whiteSpace=wrap;html=1;fillColor=none;strokeColor=#000000;" parent="1" vertex="1">
                    <mxGeometry x="917" y="2645" width="212" height="151" as="geometry"/>
                </mxCell>
                <mxCell id="285" value="&lt;font color=&quot;#000000&quot;&gt;+ _service ICheepService&lt;br&gt;+ List&amp;lt;CheepDTO&amp;gt; Cheeps&lt;br&gt;+ ind pageNum&lt;br&gt;+ List&amp;lt;AuthorDTO&amp;gt; Following&lt;br&gt;&lt;/font&gt;" style="text;strokeColor=none;fillColor=none;align=left;verticalAlign=top;spacingLeft=4;spacingRight=4;overflow=hidden;rotatable=0;points=[[0,0.5],[1,0.5]];portConstraint=eastwest;whiteSpace=wrap;html=1;" parent="284" vertex="1">
                    <mxGeometry y="26" width="212" height="62" as="geometry"/>
                </mxCell>
                <mxCell id="286" value="" style="line;strokeWidth=1;fillColor=none;align=left;verticalAlign=middle;spacingTop=-1;spacingLeft=3;spacingRight=3;rotatable=0;labelPosition=right;points=[];portConstraint=eastwest;strokeColor=inherit;" parent="284" vertex="1">
                    <mxGeometry y="88" width="212" height="8" as="geometry"/>
                </mxCell>
                <mxCell id="287" value="&lt;font color=&quot;#000000&quot;&gt;+ UserPage(ICheepService service)&lt;br&gt;+ OnGet()&lt;br&gt;+ OnPostForgetMeAsync()&lt;br&gt;&lt;/font&gt;" style="text;strokeColor=none;fillColor=none;align=left;verticalAlign=top;spacingLeft=4;spacingRight=4;overflow=hidden;rotatable=0;points=[[0,0.5],[1,0.5]];portConstraint=eastwest;whiteSpace=wrap;html=1;" parent="284" vertex="1">
                    <mxGeometry y="96" width="212" height="55" as="geometry"/>
                </mxCell>
                <mxCell id="289" value="&lt;font color=&quot;#000000&quot;&gt;UserTimelineModel&lt;/font&gt;" style="swimlane;fontStyle=1;align=center;verticalAlign=top;childLayout=stackLayout;horizontal=1;startSize=26;horizontalStack=0;resizeParent=1;resizeParentMax=0;resizeLast=0;collapsible=1;marginBottom=0;whiteSpace=wrap;html=1;strokeColor=#000000;fillColor=none;" parent="1" vertex="1">
                    <mxGeometry x="1342" y="2531" width="260" height="234" as="geometry"/>
                </mxCell>
                <mxCell id="290" value="&lt;font color=&quot;#000000&quot;&gt;+&amp;nbsp;&lt;/font&gt;&lt;span style=&quot;color: rgb(0, 0, 0);&quot;&gt;ICheepService&amp;nbsp;&lt;/span&gt;&lt;font color=&quot;#000000&quot;&gt;_service&lt;br&gt;+ int CurrentPage&lt;br&gt;+ int Count&lt;br&gt;+ string CheepMessageTimeLine&lt;br&gt;+ List&amp;lt;CheepDTO&amp;gt; Cheeps&lt;br&gt;+ int PageNum&lt;br&gt;+ string follow&lt;br&gt;+ string unfollow&lt;br&gt;&lt;/font&gt;" style="text;strokeColor=none;fillColor=none;align=left;verticalAlign=top;spacingLeft=4;spacingRight=4;overflow=hidden;rotatable=0;points=[[0,0.5],[1,0.5]];portConstraint=eastwest;whiteSpace=wrap;html=1;" parent="289" vertex="1">
                    <mxGeometry y="26" width="260" height="121" as="geometry"/>
                </mxCell>
                <mxCell id="291" value="" style="line;strokeWidth=1;fillColor=none;align=left;verticalAlign=middle;spacingTop=-1;spacingLeft=3;spacingRight=3;rotatable=0;labelPosition=right;points=[];portConstraint=eastwest;strokeColor=inherit;" parent="289" vertex="1">
                    <mxGeometry y="147" width="260" height="8" as="geometry"/>
                </mxCell>
                <mxCell id="292" value="&lt;font color=&quot;#000000&quot;&gt;+ UserTimelineModel(ICheepService service)&lt;br&gt;+ OnGet(string author)&lt;br&gt;+ OnPost()&lt;br&gt;+ DoesFollow(string CheepAuthorName)&lt;br&gt;+ OnPostLike(guid cheepId)&lt;br&gt;&lt;/font&gt;" style="text;strokeColor=none;fillColor=none;align=left;verticalAlign=top;spacingLeft=4;spacingRight=4;overflow=hidden;rotatable=0;points=[[0,0.5],[1,0.5]];portConstraint=eastwest;whiteSpace=wrap;html=1;" parent="289" vertex="1">
                    <mxGeometry y="155" width="260" height="79" as="geometry"/>
                </mxCell>
                <mxCell id="293" value="&lt;font color=&quot;#000000&quot;&gt;«RazorPages»&lt;br&gt;&lt;b&gt;PageModel&lt;/b&gt;&lt;/font&gt;" style="html=1;whiteSpace=wrap;fillColor=none;strokeColor=#000000;" parent="1" vertex="1">
                    <mxGeometry x="1171" y="2591" width="110" height="50" as="geometry"/>
                </mxCell>
                <mxCell id="295" style="edgeStyle=orthogonalEdgeStyle;rounded=0;orthogonalLoop=1;jettySize=auto;html=1;entryX=0.5;entryY=0;entryDx=0;entryDy=0;endArrow=block;endFill=0;strokeColor=#000000;" parent="1" source="296" target="293" edge="1">
                    <mxGeometry relative="1" as="geometry"/>
                </mxCell>
                <mxCell id="296" value="&lt;font color=&quot;#000000&quot;&gt;PublicModel&lt;/font&gt;" style="swimlane;fontStyle=1;align=center;verticalAlign=top;childLayout=stackLayout;horizontal=1;startSize=26;horizontalStack=0;resizeParent=1;resizeParentMax=0;resizeLast=0;collapsible=1;marginBottom=0;whiteSpace=wrap;html=1;strokeColor=#000000;fillColor=none;" parent="1" vertex="1">
                    <mxGeometry x="1191" y="2301" width="260" height="209" as="geometry"/>
                </mxCell>
                <mxCell id="297" value="&lt;font color=&quot;#000000&quot;&gt;+&amp;nbsp;&lt;/font&gt;&lt;span style=&quot;color: rgb(0, 0, 0);&quot;&gt;ICheepService&amp;nbsp;&lt;/span&gt;&lt;font color=&quot;#000000&quot;&gt;_service&lt;br&gt;+&amp;nbsp;&lt;/font&gt;&lt;span style=&quot;color: rgb(0, 0, 0);&quot;&gt;string&amp;nbsp;&lt;/span&gt;&lt;font color=&quot;#000000&quot;&gt;CheepMessageTimeLine&lt;br&gt;+ List&amp;lt;CheepDTO&amp;gt; Cheeps&lt;br&gt;+ int pageNum&lt;br&gt;+ string follow&lt;br&gt;+ string unfollow&lt;br&gt;&lt;/font&gt;" style="text;strokeColor=none;fillColor=none;align=left;verticalAlign=top;spacingLeft=4;spacingRight=4;overflow=hidden;rotatable=0;points=[[0,0.5],[1,0.5]];portConstraint=eastwest;whiteSpace=wrap;html=1;" parent="296" vertex="1">
                    <mxGeometry y="26" width="260" height="94" as="geometry"/>
                </mxCell>
                <mxCell id="298" value="" style="line;strokeWidth=1;fillColor=none;align=left;verticalAlign=middle;spacingTop=-1;spacingLeft=3;spacingRight=3;rotatable=0;labelPosition=right;points=[];portConstraint=eastwest;strokeColor=inherit;" parent="296" vertex="1">
                    <mxGeometry y="120" width="260" height="8" as="geometry"/>
                </mxCell>
                <mxCell id="299" value="&lt;font color=&quot;#000000&quot;&gt;+ PublicModel(ICheepService service)&lt;br&gt;+ OnGet()&lt;br&gt;+ OnPost()&lt;br&gt;+ DoesFollow(string CheepAuthorName)&lt;br&gt;+ OnPostLike(guid cheepId)&lt;br&gt;&lt;/font&gt;" style="text;strokeColor=none;fillColor=none;align=left;verticalAlign=top;spacingLeft=4;spacingRight=4;overflow=hidden;rotatable=0;points=[[0,0.5],[1,0.5]];portConstraint=eastwest;whiteSpace=wrap;html=1;" parent="296" vertex="1">
                    <mxGeometry y="128" width="260" height="81" as="geometry"/>
                </mxCell>
                <mxCell id="301" value="&lt;font color=&quot;#000000&quot;&gt;UserPage*&lt;/font&gt;" style="text;html=1;strokeColor=none;fillColor=none;align=center;verticalAlign=middle;whiteSpace=wrap;rounded=0;" parent="1" vertex="1">
                    <mxGeometry x="1130" y="2745" width="60" height="30" as="geometry"/>
                </mxCell>
                <mxCell id="304" value="&lt;font color=&quot;#000000&quot;&gt;UserTimelineModel*&lt;/font&gt;" style="text;html=1;strokeColor=none;fillColor=none;align=center;verticalAlign=middle;whiteSpace=wrap;rounded=0;" parent="1" vertex="1">
                    <mxGeometry x="1528" y="2501" width="60" height="30" as="geometry"/>
                </mxCell>
                <mxCell id="311" style="edgeStyle=none;html=1;entryX=1;entryY=0.5;entryDx=0;entryDy=0;strokeColor=#000000;fontColor=#000000;endArrow=block;endFill=0;exitX=0.435;exitY=0.971;exitDx=0;exitDy=0;exitPerimeter=0;rounded=0;" parent="1" source="309" target="310" edge="1">
                    <mxGeometry relative="1" as="geometry">
                        <Array as="points">
                            <mxPoint x="1456" y="449"/>
                        </Array>
                    </mxGeometry>
                </mxCell>
                <mxCell id="312" style="edgeStyle=none;rounded=0;html=1;entryX=1;entryY=0.25;entryDx=0;entryDy=0;strokeColor=#000000;fontColor=#000000;endArrow=classic;endFill=1;" parent="1" source="306" target="129" edge="1">
                    <mxGeometry relative="1" as="geometry">
                        <Array as="points">
                            <mxPoint x="1466" y="344"/>
                        </Array>
                    </mxGeometry>
                </mxCell>
                <mxCell id="306" value="CheepCreateValidator" style="swimlane;fontStyle=1;align=center;verticalAlign=top;childLayout=stackLayout;horizontal=1;startSize=26;horizontalStack=0;resizeParent=1;resizeParentMax=0;resizeLast=0;collapsible=1;marginBottom=0;labelBackgroundColor=none;strokeColor=#000000;strokeWidth=1;fontColor=#000000;fillColor=none;" parent="1" vertex="1">
                    <mxGeometry x="1386" y="367" width="160" height="52" as="geometry"/>
                </mxCell>
                <mxCell id="309" value="+ CheepCreateValidator()" style="text;strokeColor=none;fillColor=none;align=left;verticalAlign=top;spacingLeft=4;spacingRight=4;overflow=hidden;rotatable=0;points=[[0,0.5],[1,0.5]];portConstraint=eastwest;labelBackgroundColor=none;strokeWidth=1;fontColor=#000000;" parent="306" vertex="1">
                    <mxGeometry y="26" width="160" height="26" as="geometry"/>
                </mxCell>
                <mxCell id="310" value="«interface»&lt;br&gt;&lt;b&gt;AbstractValidator&lt;/b&gt;" style="html=1;labelBackgroundColor=none;strokeColor=#000000;strokeWidth=1;fontColor=#000000;fillColor=none;" parent="1" vertex="1">
                    <mxGeometry x="1240" y="424" width="110" height="50" as="geometry"/>
                </mxCell>
                <mxCell id="316" value="" style="text;strokeColor=none;fillColor=none;align=left;verticalAlign=middle;spacingTop=-1;spacingLeft=4;spacingRight=4;rotatable=0;labelPosition=right;points=[];portConstraint=eastwest;labelBackgroundColor=none;strokeWidth=1;fontColor=#000000;" parent="1" vertex="1">
                    <mxGeometry x="1340" y="368" width="20" height="14" as="geometry"/>
                </mxCell>
                <mxCell id="318" value="CheepCreateDTO*" style="text;html=1;align=center;verticalAlign=middle;resizable=0;points=[];autosize=1;strokeColor=none;fillColor=none;fontColor=#000000;" parent="1" vertex="1">
                    <mxGeometry x="1350" y="323" width="119" height="26" as="geometry"/>
                </mxCell>
                <mxCell id="294" value="&lt;font color=&quot;#000000&quot;&gt;PublicModel*&lt;/font&gt;" style="text;html=1;strokeColor=none;fillColor=none;align=center;verticalAlign=middle;whiteSpace=wrap;rounded=0;" parent="1" vertex="1">
                    <mxGeometry x="1107" y="2351" width="60" height="30" as="geometry"/>
                </mxCell>
                <mxCell id="322" style="edgeStyle=none;html=1;exitX=1;exitY=0.5;exitDx=0;exitDy=0;entryX=0;entryY=0;entryDx=0;entryDy=0;strokeColor=#000000;endArrow=block;endFill=0;" parent="1" source="282" target="293" edge="1">
                    <mxGeometry relative="1" as="geometry">
                        <Array as="points">
                            <mxPoint x="1171" y="2565"/>
                        </Array>
                    </mxGeometry>
                </mxCell>
                <mxCell id="326" style="edgeStyle=none;html=1;exitX=0;exitY=0.5;exitDx=0;exitDy=0;entryX=1;entryY=0;entryDx=0;entryDy=0;strokeColor=#000000;endArrow=block;endFill=0;" edge="1" parent="1" source="290" target="293">
                    <mxGeometry relative="1" as="geometry">
                        <Array as="points">
                            <mxPoint x="1312" y="2616"/>
                            <mxPoint x="1312" y="2591"/>
                        </Array>
                    </mxGeometry>
                </mxCell>
                <mxCell id="331" style="edgeStyle=none;html=1;exitX=0;exitY=0.5;exitDx=0;exitDy=0;strokeColor=#000000;endArrow=classic;endFill=1;entryX=1.002;entryY=0.575;entryDx=0;entryDy=0;entryPerimeter=0;" edge="1" parent="1" source="126" target="124">
                    <mxGeometry relative="1" as="geometry">
                        <mxPoint x="1204.666692097982" y="268.5" as="targetPoint"/>
                    </mxGeometry>
                </mxCell>
                <mxCell id="332" value="" style="html=1;whiteSpace=wrap;aspect=fixed;shape=isoRectangle;fillColor=none;strokeColor=#000000;" vertex="1" parent="1">
                    <mxGeometry x="1021" y="393" width="20" height="12" as="geometry"/>
                </mxCell>
                <mxCell id="333" value="" style="html=1;whiteSpace=wrap;aspect=fixed;shape=isoRectangle;fillColor=none;strokeColor=#000000;" vertex="1" parent="1">
                    <mxGeometry x="1020" y="337" width="20" height="12" as="geometry"/>
                </mxCell>
                <mxCell id="334" value="" style="html=1;whiteSpace=wrap;aspect=fixed;shape=isoRectangle;fillColor=none;strokeColor=#000000;" vertex="1" parent="1">
                    <mxGeometry x="1021" y="447" width="20" height="12" as="geometry"/>
                </mxCell>
            </root>
        </mxGraphModel>
    </diagram>
</mxfile>